<svg id="Rock" xmlns="http://www.w3.org/2000/svg" viewBox="0 0 300 300"><g id="Rock-2" data-name="Rock"><rect x="120" y="105" width="6" height="6"/><rect x="126" y="105" width="6" height="6"/><rect x="132" y="105" width="6" height="6"/><rect x="138" y="105" width="6" height="6"/><rect x="144" y="105" width="6" height="6"/><rect x="150" y="105" width="6" height="6"/><rect x="156" y="105" width="6" height="6"/><rect x="162" y="105" width="6" height="6"/><rect x="168" y="105" width="6" height="6"/><rect x="174" y="105" width="6" height="6"/><rect x="180" y="111" width="6" height="6"/><rect x="180" y="117" width="6" height="6"/><rect x="180" y="123" width="6" height="6"/><rect x="180" y="129" width="6" height="6"/><rect x="180" y="135" width="6" height="6"/><rect x="180" y="141" width="6" height="6"/><rect x="180" y="147" width="6" height="6"/><rect x="198" y="141" width="6" height="6"/><rect x="198" y="147" width="6" height="6"/><rect x="180" y="153" width="6" height="6"/><rect x="174" y="159" width="6" height="6"/><rect x="168" y="159" width="6" height="6"/><rect x="162" y="159" width="6" height="6"/><rect x="162" y="165" width="6" height="6"/><rect x="192" y="189" width="6" height="6"/><rect x="198" y="183" width="6" height="6"/><rect x="198" y="177" width="6" height="6"/><rect x="168" y="171" width="6" height="6"/><rect x="174" y="171" width="6" height="6"/><rect x="180" y="171" width="6" height="6"/><rect x="186" y="171" width="6" height="6"/><rect x="192" y="171" width="6" height="6"/><rect x="198" y="165" width="6" height="6"/><rect x="198" y="159" width="6" height="6"/><rect x="156" y="153" width="6" height="6"/><rect x="156" y="141" width="6" height="6"/><rect x="156" y="147" width="6" height="6"/><rect x="156" y="135" width="6" height="6"/><rect x="156" y="129" width="6" height="6"/><rect x="156" y="123" width="6" height="6"/><rect x="186" y="111" width="6" height="6"/><rect x="192" y="111" width="6" height="6"/><rect x="186" y="129" width="6" height="6"/><rect x="192" y="129" width="6" height="6"/><rect x="198" y="123" width="6" height="6"/><rect x="198" y="117" width="6" height="6"/><rect x="198" y="135" width="6" height="6"/><rect x="186" y="153" width="6" height="6"/><rect x="192" y="153" width="6" height="6"/><rect x="114" y="165" width="6" height="6" transform="translate(-51 285) rotate(-90)"/><rect x="114" y="171" width="6" height="6" transform="translate(-57 291) rotate(-90)"/><rect x="114" y="177" width="6" height="6" transform="translate(-63 297) rotate(-90)"/><rect x="108" y="183" width="6" height="6" transform="translate(-75 297) rotate(-90)"/><rect x="120" y="183" width="6" height="6" transform="translate(-63 309) rotate(-90)"/><rect x="126" y="183" width="6" height="6" transform="translate(-57 315) rotate(-90)"/><rect x="132" y="183" width="6" height="6" transform="translate(-51 321) rotate(-90)"/><rect x="138" y="189" width="6" height="6" transform="translate(-51 333) rotate(-90)"/><rect x="144" y="189" width="6" height="6" transform="translate(-45 339) rotate(-90)"/><rect x="150" y="189" width="6" height="6" transform="translate(-39 345) rotate(-90)"/><rect x="156" y="189" width="6" height="6" transform="translate(-33 351) rotate(-90)"/><rect x="162" y="189" width="6" height="6" transform="translate(-27 357) rotate(-90)"/><rect x="162" y="183" width="6" height="6" transform="translate(-21 351) rotate(-90)"/><rect x="162" y="177" width="6" height="6" transform="translate(-15 345) rotate(-90)"/><rect x="168" y="189" width="6" height="6" transform="translate(-21 363) rotate(-90)"/><rect x="174" y="189" width="6" height="6" transform="translate(-15 369) rotate(-90)"/><rect x="180" y="189" width="6" height="6" transform="translate(-9 375) rotate(-90)"/><rect x="186" y="189" width="6" height="6" transform="translate(-3 381) rotate(-90)"/><rect x="102" y="183" width="6" height="6" transform="translate(-81 291) rotate(-90)"/><rect x="96" y="177" width="6" height="6" transform="translate(-81 279) rotate(-90)"/><rect x="114" y="159" width="6" height="6" transform="translate(-45 279) rotate(-90)"/><rect x="114" y="153" width="6" height="6" transform="translate(-39 273) rotate(-90)"/><rect x="114" y="141" width="6" height="6" transform="translate(-27 261) rotate(-90)"/><rect x="114" y="135" width="6" height="6" transform="translate(-21 255) rotate(-90)"/><rect x="114" y="129" width="6" height="6" transform="translate(-15 249) rotate(-90)"/><rect x="114" y="123" width="6" height="6" transform="translate(-9 243) rotate(-90)"/><rect x="114" y="117" width="6" height="6" transform="translate(-3 237) rotate(-90)"/><rect x="96" y="165" width="6" height="6" transform="translate(-69 267) rotate(-90)"/><rect x="96" y="171" width="6" height="6" transform="translate(-75 273) rotate(-90)"/><rect x="96" y="159" width="6" height="6" transform="translate(-63 261) rotate(-90)"/><rect x="96" y="153" width="6" height="6" transform="translate(-57 255) rotate(-90)"/><rect x="96" y="141" width="6" height="6" transform="translate(-45 243) rotate(-90)"/><rect x="114" y="147" width="6" height="6" transform="translate(-33 267) rotate(-90)"/><rect x="96" y="147" width="6" height="6" transform="translate(-51 249) rotate(-90)"/><rect x="96" y="135" width="6" height="6" transform="translate(-39 237) rotate(-90)"/><rect x="96" y="129" width="6" height="6" transform="translate(-33 231) rotate(-90)"/><rect x="96" y="123" width="6" height="6" transform="translate(-27 225) rotate(-90)"/><polyline points="96 123 96 117 102 117 102 123 96 123"/><rect x="114" y="111" width="6" height="6" transform="translate(3 231) rotate(-90)"/><rect x="108" y="111" width="6" height="6" transform="translate(-3 225) rotate(-90)"/><rect x="102" y="111" width="6" height="6" transform="translate(-9 219) rotate(-90)"/></g></svg>