<svg xmlns="http://www.w3.org/2000/svg" viewBox="0 0 300 300"><g id="Paper"><g id="Paper-2" data-name="Paper"><rect x="90" y="117" width="6" height="6"/><rect x="96" y="111" width="6" height="6"/><rect x="102" y="111" width="6" height="6"/><rect x="108" y="105" width="6" height="6"/><rect x="114" y="105" width="6" height="6"/><rect x="120" y="99" width="6" height="6"/><rect x="126" y="99" width="6" height="6"/><rect x="132" y="99" width="6" height="6"/><rect x="138" y="99" width="6" height="6"/><rect x="144" y="99" width="6" height="6"/><rect x="150" y="99" width="6" height="6"/><rect x="156" y="99" width="6" height="6"/><rect x="174" y="153" width="6" height="6"/><rect x="168" y="153" width="6" height="6"/><rect x="186" y="153" width="6" height="6"/><rect x="180" y="153" width="6" height="6"/><rect x="198" y="153" width="6" height="6"/><rect x="204" y="153" width="6" height="6"/><rect x="192" y="153" width="6" height="6"/><rect x="174" y="171" width="6" height="6"/><rect x="168" y="171" width="6" height="6"/><rect x="186" y="171" width="6" height="6"/><rect x="180" y="171" width="6" height="6"/><rect x="198" y="171" width="6" height="6"/><rect x="204" y="171" width="6" height="6"/><rect x="192" y="171" width="6" height="6"/><rect x="198" y="177" width="6" height="6"/><rect x="198" y="183" width="6" height="6"/><rect x="192" y="189" width="6" height="6"/><rect x="162" y="195" width="6" height="6"/><rect x="168" y="195" width="6" height="6"/><rect x="168" y="189" width="6" height="6"/><rect x="174" y="189" width="6" height="6"/><rect x="180" y="189" width="6" height="6"/><rect x="186" y="189" width="6" height="6"/><rect x="162" y="117" width="6" height="6"/><rect x="168" y="117" width="6" height="6"/><rect x="168" y="135" width="6" height="6"/><rect x="174" y="117" width="6" height="6"/><rect x="174" y="135" width="6" height="6"/><rect x="180" y="117" width="6" height="6"/><rect x="162" y="99" width="6" height="6"/><rect x="168" y="99" width="6" height="6"/><rect x="174" y="99" width="6" height="6"/><rect x="180" y="105" width="6" height="6"/><rect x="180" y="111" width="6" height="6"/><rect x="180" y="135" width="6" height="6"/><rect x="186" y="117" width="6" height="6"/><rect x="186" y="135" width="6" height="6"/><rect x="192" y="117" width="6" height="6"/><rect x="192" y="135" width="6" height="6"/><rect x="198" y="117" width="6" height="6"/><rect x="198" y="135" width="6" height="6"/><rect x="204" y="117" width="6" height="6"/><rect x="204" y="135" width="6" height="6"/><rect x="210" y="153" width="6" height="6"/><rect x="210" y="171" width="6" height="6"/><rect x="210" y="117" width="6" height="6"/><rect x="210" y="135" width="6" height="6"/><rect x="216" y="153" width="6" height="6"/><rect x="222" y="153" width="6" height="6"/><rect x="216" y="171" width="6" height="6"/><rect x="216" y="117" width="6" height="6"/><rect x="216" y="135" width="6" height="6"/><rect x="222" y="135" width="6" height="6"/><rect x="222" y="129" width="6" height="6"/><rect x="222" y="123" width="6" height="6"/><rect x="228" y="147" width="6" height="6"/><rect x="228" y="141" width="6" height="6"/><rect x="222" y="164.25" width="6" height="6"/><rect x="222" y="158.25" width="6" height="6"/><rect x="84" y="177" width="6" height="6" transform="translate(-93 267) rotate(-90)"/><rect x="84" y="183" width="6" height="6" transform="translate(-99 273) rotate(-90)"/><rect x="84" y="189" width="6" height="6" transform="translate(-105 279) rotate(-90)"/><rect x="78" y="195" width="6" height="6" transform="translate(-117 279) rotate(-90)"/><rect x="90" y="195" width="6" height="6" transform="translate(-105 291) rotate(-90)"/><rect x="96" y="195" width="6" height="6" transform="translate(-99 297) rotate(-90)"/><rect x="102" y="195" width="6" height="6" transform="translate(-93 303) rotate(-90)"/><rect x="108" y="195" width="6" height="6" transform="translate(-87 309) rotate(-90)"/><rect x="114" y="195" width="6" height="6" transform="translate(-81 315) rotate(-90)"/><rect x="120" y="195" width="6" height="6" transform="translate(-75 321) rotate(-90)"/><rect x="126" y="195" width="6" height="6" transform="translate(-69 327) rotate(-90)"/><rect x="132" y="195" width="6" height="6" transform="translate(-63 333) rotate(-90)"/><rect x="138" y="195" width="6" height="6" transform="translate(-57 339) rotate(-90)"/><rect x="144" y="195" width="6" height="6" transform="translate(-51 345) rotate(-90)"/><rect x="150" y="195" width="6" height="6" transform="translate(-45 351) rotate(-90)"/><rect x="156" y="195" width="6" height="6" transform="translate(-39 357) rotate(-90)"/><rect x="72" y="195" width="6" height="6" transform="translate(-123 273) rotate(-90)"/><rect x="66" y="189" width="6" height="6" transform="translate(-123 261) rotate(-90)"/><rect x="84" y="171" width="6" height="6" transform="translate(-87 261) rotate(-90)"/><rect x="84" y="165" width="6" height="6" transform="translate(-81 255) rotate(-90)"/><rect x="84" y="153" width="6" height="6" transform="translate(-69 243) rotate(-90)"/><rect x="84" y="147" width="6" height="6" transform="translate(-63 237) rotate(-90)"/><rect x="84" y="141" width="6" height="6" transform="translate(-57 231) rotate(-90)"/><rect x="84" y="135" width="6" height="6" transform="translate(-51 225) rotate(-90)"/><rect x="84" y="129" width="6" height="6" transform="translate(-45 219) rotate(-90)"/><rect x="66" y="177" width="6" height="6" transform="translate(-111 249) rotate(-90)"/><rect x="66" y="183" width="6" height="6" transform="translate(-117 255) rotate(-90)"/><rect x="66" y="171" width="6" height="6" transform="translate(-105 243) rotate(-90)"/><rect x="66" y="165" width="6" height="6" transform="translate(-99 237) rotate(-90)"/><rect x="66" y="153" width="6" height="6" transform="translate(-87 225) rotate(-90)"/><rect x="84" y="159" width="6" height="6" transform="translate(-75 249) rotate(-90)"/><rect x="66" y="159" width="6" height="6" transform="translate(-93 231) rotate(-90)"/><rect x="66" y="147" width="6" height="6" transform="translate(-81 219) rotate(-90)"/><rect x="66" y="141" width="6" height="6" transform="translate(-75 213) rotate(-90)"/><rect x="66" y="135" width="6" height="6" transform="translate(-69 207) rotate(-90)"/><rect x="66" y="129" width="6" height="6" transform="translate(-63 201) rotate(-90)"/><rect x="84" y="123" width="6" height="6" transform="translate(-39 213) rotate(-90)"/><rect x="78" y="123" width="6" height="6" transform="translate(-45 207) rotate(-90)"/><rect x="72" y="123" width="6" height="6" transform="translate(-51 201) rotate(-90)"/></g></g></svg>