<svg xmlns="http://www.w3.org/2000/svg" viewBox="0 0 300 300"><g id="Scissors"><g id="Scissors-2" data-name="Scissors"><rect x="96" y="105" width="6" height="6"/><rect x="102" y="105" width="6" height="6"/><rect x="108" y="105" width="6" height="6"/><rect x="114" y="105" width="6" height="6"/><rect x="120" y="105" width="6" height="6"/><rect x="126" y="105" width="6" height="6"/><rect x="132" y="105" width="6" height="6"/><rect x="138" y="105" width="6" height="6"/><rect x="144" y="105" width="6" height="6"/><rect x="150" y="105" width="6" height="6"/><rect x="156" y="111" width="6" height="6"/><rect x="156" y="117" width="6" height="6"/><rect x="156" y="123" width="6" height="6"/><rect x="156" y="129" width="6" height="6"/><rect x="156" y="135" width="6" height="6"/><rect x="156" y="141" width="6" height="6"/><rect x="156" y="147" width="6" height="6"/><rect x="180" y="153" width="6" height="6"/><rect x="174" y="153" width="6" height="6"/><rect x="180" y="135" width="6" height="6"/><rect x="174" y="135" width="6" height="6"/><rect x="192" y="135" width="6" height="6"/><rect x="186" y="135" width="6" height="6"/><rect x="204" y="135" width="6" height="6"/><rect x="210" y="135" width="6" height="6"/><rect x="216" y="135" width="6" height="6"/><rect x="198" y="135" width="6" height="6"/><rect x="192" y="153" width="6" height="6"/><rect x="186" y="153" width="6" height="6"/><rect x="204" y="153" width="6" height="6"/><rect x="210" y="153" width="6" height="6"/><rect x="216" y="153" width="6" height="6"/><rect x="198" y="153" width="6" height="6"/><rect x="156" y="153" width="6" height="6"/><rect x="150" y="159" width="6" height="6"/><rect x="144" y="159" width="6" height="6"/><rect x="138" y="159" width="6" height="6"/><rect x="138" y="165" width="6" height="6"/><rect x="168" y="189" width="6" height="6"/><rect x="174" y="183" width="6" height="6"/><rect x="174" y="177" width="6" height="6"/><rect x="144" y="171" width="6" height="6"/><rect x="150" y="171" width="6" height="6"/><rect x="156" y="171" width="6" height="6"/><rect x="162" y="171" width="6" height="6"/><rect x="168" y="171" width="6" height="6"/><rect x="174" y="165" width="6" height="6"/><rect x="174" y="159" width="6" height="6"/><rect x="132" y="153" width="6" height="6"/><rect x="132" y="141" width="6" height="6"/><rect x="132" y="147" width="6" height="6"/><rect x="132" y="135" width="6" height="6"/><rect x="132" y="129" width="6" height="6"/><rect x="132" y="123" width="6" height="6"/><rect x="162" y="105" width="6" height="6"/><rect x="168" y="105" width="6" height="6"/><rect x="174" y="105" width="6" height="6"/><rect x="174" y="123" width="6" height="6"/><rect x="168" y="129" width="6" height="6"/><rect x="180" y="105" width="6" height="6"/><rect x="180" y="123" width="6" height="6"/><rect x="186" y="105" width="6" height="6"/><rect x="186" y="123" width="6" height="6"/><rect x="192" y="105" width="6" height="6"/><rect x="192" y="123" width="6" height="6"/><rect x="198" y="105" width="6" height="6"/><rect x="198" y="123" width="6" height="6"/><rect x="204" y="105" width="6" height="6"/><rect x="204" y="123" width="6" height="6"/><rect x="210" y="105" width="6" height="6"/><rect x="210" y="123" width="6" height="6"/><rect x="216" y="117" width="6" height="6"/><rect x="216" y="111" width="6" height="6"/><rect x="222" y="147" width="6" height="6"/><rect x="222" y="141" width="6" height="6"/><rect x="162" y="153" width="6" height="6"/><rect x="168" y="153" width="6" height="6"/><rect x="90" y="165" width="6" height="6" transform="translate(-75 261) rotate(-90)"/><rect x="90" y="171" width="6" height="6" transform="translate(-81 267) rotate(-90)"/><rect x="90" y="177" width="6" height="6" transform="translate(-87 273) rotate(-90)"/><rect x="84" y="183" width="6" height="6" transform="translate(-99 273) rotate(-90)"/><rect x="96" y="183" width="6" height="6" transform="translate(-87 285) rotate(-90)"/><rect x="102" y="183" width="6" height="6" transform="translate(-81 291) rotate(-90)"/><rect x="108" y="183" width="6" height="6" transform="translate(-75 297) rotate(-90)"/><rect x="114" y="189" width="6" height="6" transform="translate(-75 309) rotate(-90)"/><rect x="120" y="189" width="6" height="6" transform="translate(-69 315) rotate(-90)"/><rect x="126" y="189" width="6" height="6" transform="translate(-63 321) rotate(-90)"/><rect x="132" y="189" width="6" height="6" transform="translate(-57 327) rotate(-90)"/><rect x="138" y="189" width="6" height="6" transform="translate(-51 333) rotate(-90)"/><rect x="138" y="183" width="6" height="6" transform="translate(-45 327) rotate(-90)"/><rect x="138" y="177" width="6" height="6" transform="translate(-39 321) rotate(-90)"/><rect x="144" y="189" width="6" height="6" transform="translate(-45 339) rotate(-90)"/><rect x="150" y="189" width="6" height="6" transform="translate(-39 345) rotate(-90)"/><rect x="156" y="189" width="6" height="6" transform="translate(-33 351) rotate(-90)"/><rect x="162" y="189" width="6" height="6" transform="translate(-27 357) rotate(-90)"/><rect x="78" y="183" width="6" height="6" transform="translate(-105 267) rotate(-90)"/><rect x="72" y="177" width="6" height="6" transform="translate(-105 255) rotate(-90)"/><rect x="90" y="159" width="6" height="6" transform="translate(-69 255) rotate(-90)"/><rect x="90" y="153" width="6" height="6" transform="translate(-63 249) rotate(-90)"/><rect x="90" y="141" width="6" height="6" transform="translate(-51 237) rotate(-90)"/><rect x="90" y="135" width="6" height="6" transform="translate(-45 231) rotate(-90)"/><rect x="90" y="129" width="6" height="6" transform="translate(-39 225) rotate(-90)"/><rect x="90" y="123" width="6" height="6" transform="translate(-33 219) rotate(-90)"/><rect x="90" y="117" width="6" height="6" transform="translate(-27 213) rotate(-90)"/><rect x="72" y="165" width="6" height="6" transform="translate(-93 243) rotate(-90)"/><rect x="72" y="171" width="6" height="6" transform="translate(-99 249) rotate(-90)"/><rect x="72" y="159" width="6" height="6" transform="translate(-87 237) rotate(-90)"/><rect x="72" y="153" width="6" height="6" transform="translate(-81 231) rotate(-90)"/><rect x="72" y="141" width="6" height="6" transform="translate(-69 219) rotate(-90)"/><rect x="90" y="147" width="6" height="6" transform="translate(-57 243) rotate(-90)"/><rect x="72" y="147" width="6" height="6" transform="translate(-75 225) rotate(-90)"/><rect x="72" y="135" width="6" height="6" transform="translate(-63 213) rotate(-90)"/><rect x="72" y="129" width="6" height="6" transform="translate(-57 207) rotate(-90)"/><rect x="72" y="123" width="6" height="6" transform="translate(-51 201) rotate(-90)"/><rect x="72" y="117" width="6" height="6" transform="translate(-45 195) rotate(-90)"/><rect x="90" y="111" width="6" height="6" transform="translate(-21 207) rotate(-90)"/><rect x="84" y="111" width="6" height="6" transform="translate(-27 201) rotate(-90)"/><rect x="78" y="111" width="6" height="6" transform="translate(-33 195) rotate(-90)"/></g></g></svg>